<mxfile host="app.diagrams.net" agent="Mozilla/5.0 (X11; Linux x86_64; rv:128.0) Gecko/20100101 Firefox/128.0" version="24.8.6">
  <diagram name="Page-1" id="ljXvueuXJCZqyv_ljDoX">
    <mxGraphModel dx="2762" dy="1068" grid="1" gridSize="10" guides="1" tooltips="1" connect="1" arrows="1" fold="1" page="1" pageScale="1" pageWidth="850" pageHeight="1100" math="0" shadow="0">
      <root>
        <mxCell id="0" />
        <mxCell id="1" parent="0" />
        <mxCell id="RCSs8hemVRenKPumz4m_-7" value="" style="edgeStyle=orthogonalEdgeStyle;rounded=0;orthogonalLoop=1;jettySize=auto;html=1;" edge="1" parent="1" source="RCSs8hemVRenKPumz4m_-1">
          <mxGeometry relative="1" as="geometry">
            <mxPoint x="450" y="170" as="targetPoint" />
          </mxGeometry>
        </mxCell>
        <mxCell id="RCSs8hemVRenKPumz4m_-1" value="ft_printf(char const *fmt, ...);" style="rounded=1;whiteSpace=wrap;html=1;" vertex="1" parent="1">
          <mxGeometry x="270" y="80" width="360" height="30" as="geometry" />
        </mxCell>
        <mxCell id="RCSs8hemVRenKPumz4m_-2" value="&lt;div&gt;Main function, handle the variadic arguments&lt;/div&gt;" style="text;html=1;align=center;verticalAlign=middle;resizable=0;points=[];autosize=1;strokeColor=none;fillColor=none;" vertex="1" parent="1">
          <mxGeometry x="635" y="80" width="260" height="30" as="geometry" />
        </mxCell>
        <mxCell id="RCSs8hemVRenKPumz4m_-3" value="&lt;div&gt;typedef struct s_buffer{&lt;/div&gt;&lt;div&gt;char buffer[4096];&lt;/div&gt;&lt;div&gt;size_t i;&lt;/div&gt;&lt;div&gt;}t_buffer;&lt;br&gt;&lt;/div&gt;" style="rhombus;whiteSpace=wrap;html=1;rounded=0;" vertex="1" parent="1">
          <mxGeometry x="10" width="180" height="170" as="geometry" />
        </mxCell>
        <mxCell id="RCSs8hemVRenKPumz4m_-4" value="Struct for buffer and index" style="text;html=1;align=center;verticalAlign=middle;resizable=0;points=[];autosize=1;strokeColor=none;fillColor=none;" vertex="1" parent="1">
          <mxGeometry x="150" y="10" width="160" height="30" as="geometry" />
        </mxCell>
        <mxCell id="RCSs8hemVRenKPumz4m_-8" value="format pattern detected ?" style="shape=process;whiteSpace=wrap;html=1;backgroundOutline=1;" vertex="1" parent="1">
          <mxGeometry x="370" y="170" width="160" height="60" as="geometry" />
        </mxCell>
        <mxCell id="RCSs8hemVRenKPumz4m_-9" value="" style="endArrow=classic;html=1;rounded=0;exitX=1;exitY=0.5;exitDx=0;exitDy=0;entryX=0;entryY=0.5;entryDx=0;entryDy=0;" edge="1" parent="1" source="RCSs8hemVRenKPumz4m_-8" target="RCSs8hemVRenKPumz4m_-11">
          <mxGeometry width="50" height="50" relative="1" as="geometry">
            <mxPoint x="390" y="320" as="sourcePoint" />
            <mxPoint x="720" y="230" as="targetPoint" />
          </mxGeometry>
        </mxCell>
        <mxCell id="RCSs8hemVRenKPumz4m_-10" value="NO" style="text;html=1;align=center;verticalAlign=middle;resizable=0;points=[];autosize=1;strokeColor=none;fillColor=none;" vertex="1" parent="1">
          <mxGeometry x="530" y="200" width="40" height="30" as="geometry" />
        </mxCell>
        <mxCell id="RCSs8hemVRenKPumz4m_-11" value="t_buffer-&amp;gt;buffer[t_buffer-&amp;gt;i] = fmt[i] " style="rounded=1;whiteSpace=wrap;html=1;" vertex="1" parent="1">
          <mxGeometry x="650" y="190" width="210" height="20" as="geometry" />
        </mxCell>
        <mxCell id="RCSs8hemVRenKPumz4m_-12" value="" style="endArrow=classic;html=1;rounded=0;exitX=0.5;exitY=1;exitDx=0;exitDy=0;" edge="1" parent="1" source="RCSs8hemVRenKPumz4m_-8">
          <mxGeometry width="50" height="50" relative="1" as="geometry">
            <mxPoint x="390" y="320" as="sourcePoint" />
            <mxPoint x="450" y="280" as="targetPoint" />
          </mxGeometry>
        </mxCell>
        <mxCell id="RCSs8hemVRenKPumz4m_-17" style="edgeStyle=orthogonalEdgeStyle;rounded=0;orthogonalLoop=1;jettySize=auto;html=1;exitX=0.5;exitY=1;exitDx=0;exitDy=0;" edge="1" parent="1" source="RCSs8hemVRenKPumz4m_-13">
          <mxGeometry relative="1" as="geometry">
            <mxPoint x="450" y="350" as="targetPoint" />
          </mxGeometry>
        </mxCell>
        <mxCell id="RCSs8hemVRenKPumz4m_-13" value="void args_manage(char const *fmt, size_t i, va_list args, t_buffer *buffer);" style="rounded=1;whiteSpace=wrap;html=1;" vertex="1" parent="1">
          <mxGeometry x="245" y="280" width="410" height="30" as="geometry" />
        </mxCell>
        <mxCell id="RCSs8hemVRenKPumz4m_-14" value="YES" style="text;html=1;align=center;verticalAlign=middle;resizable=0;points=[];autosize=1;strokeColor=none;fillColor=none;" vertex="1" parent="1">
          <mxGeometry x="440" y="230" width="50" height="30" as="geometry" />
        </mxCell>
        <mxCell id="RCSs8hemVRenKPumz4m_-16" value="Function who manage the arg with the flags and the type specifier." style="text;html=1;align=center;verticalAlign=middle;resizable=0;points=[];autosize=1;strokeColor=none;fillColor=none;" vertex="1" parent="1">
          <mxGeometry x="660" y="280" width="370" height="30" as="geometry" />
        </mxCell>
        <mxCell id="RCSs8hemVRenKPumz4m_-28" style="edgeStyle=orthogonalEdgeStyle;rounded=0;orthogonalLoop=1;jettySize=auto;html=1;exitX=1;exitY=0.5;exitDx=0;exitDy=0;" edge="1" parent="1" source="RCSs8hemVRenKPumz4m_-18" target="RCSs8hemVRenKPumz4m_-20">
          <mxGeometry relative="1" as="geometry" />
        </mxCell>
        <mxCell id="RCSs8hemVRenKPumz4m_-31" style="edgeStyle=orthogonalEdgeStyle;rounded=0;orthogonalLoop=1;jettySize=auto;html=1;exitX=0.5;exitY=1;exitDx=0;exitDy=0;entryX=0.5;entryY=0;entryDx=0;entryDy=0;" edge="1" parent="1" source="RCSs8hemVRenKPumz4m_-18" target="RCSs8hemVRenKPumz4m_-23">
          <mxGeometry relative="1" as="geometry" />
        </mxCell>
        <mxCell id="RCSs8hemVRenKPumz4m_-18" value="Flags detected ?" style="shape=process;whiteSpace=wrap;html=1;backgroundOutline=1;" vertex="1" parent="1">
          <mxGeometry x="370" y="350" width="150" height="40" as="geometry" />
        </mxCell>
        <mxCell id="RCSs8hemVRenKPumz4m_-29" style="edgeStyle=orthogonalEdgeStyle;rounded=0;orthogonalLoop=1;jettySize=auto;html=1;" edge="1" parent="1" source="RCSs8hemVRenKPumz4m_-20">
          <mxGeometry relative="1" as="geometry">
            <mxPoint x="820" y="370" as="targetPoint" />
          </mxGeometry>
        </mxCell>
        <mxCell id="RCSs8hemVRenKPumz4m_-33" style="edgeStyle=orthogonalEdgeStyle;rounded=0;orthogonalLoop=1;jettySize=auto;html=1;exitX=0.5;exitY=1;exitDx=0;exitDy=0;" edge="1" parent="1" source="RCSs8hemVRenKPumz4m_-20">
          <mxGeometry relative="1" as="geometry">
            <mxPoint x="800" y="430" as="targetPoint" />
          </mxGeometry>
        </mxCell>
        <mxCell id="RCSs8hemVRenKPumz4m_-20" value="Type specifier detected ?" style="shape=process;whiteSpace=wrap;html=1;backgroundOutline=1;" vertex="1" parent="1">
          <mxGeometry x="600" y="350" width="170" height="40" as="geometry" />
        </mxCell>
        <mxCell id="RCSs8hemVRenKPumz4m_-21" value="NO" style="text;html=1;align=center;verticalAlign=middle;resizable=0;points=[];autosize=1;strokeColor=none;fillColor=none;" vertex="1" parent="1">
          <mxGeometry x="520" y="350" width="40" height="30" as="geometry" />
        </mxCell>
        <mxCell id="RCSs8hemVRenKPumz4m_-23" value="void&lt;span style=&quot;white-space: pre;&quot;&gt;&#x9;&lt;/span&gt;flags_manage(char const *fmt, size_t i, t_buffer *buffer);" style="rounded=1;whiteSpace=wrap;html=1;" vertex="1" parent="1">
          <mxGeometry x="-100" y="430" width="400" height="22.5" as="geometry" />
        </mxCell>
        <mxCell id="RCSs8hemVRenKPumz4m_-24" value="&lt;div&gt;Handle flags&lt;/div&gt;" style="text;html=1;align=center;verticalAlign=middle;resizable=0;points=[];autosize=1;strokeColor=none;fillColor=none;" vertex="1" parent="1">
          <mxGeometry x="-20" y="400" width="90" height="30" as="geometry" />
        </mxCell>
        <mxCell id="RCSs8hemVRenKPumz4m_-25" value="Yes" style="text;html=1;align=center;verticalAlign=middle;resizable=0;points=[];autosize=1;strokeColor=none;fillColor=none;" vertex="1" parent="1">
          <mxGeometry x="130" y="390" width="40" height="30" as="geometry" />
        </mxCell>
        <mxCell id="RCSs8hemVRenKPumz4m_-30" value="Error(&quot;Wrong type specifier&quot;);" style="shape=process;whiteSpace=wrap;html=1;backgroundOutline=1;" vertex="1" parent="1">
          <mxGeometry x="820" y="350" width="150" height="40" as="geometry" />
        </mxCell>
        <mxCell id="RCSs8hemVRenKPumz4m_-35" style="edgeStyle=orthogonalEdgeStyle;rounded=0;orthogonalLoop=1;jettySize=auto;html=1;exitX=0.5;exitY=1;exitDx=0;exitDy=0;" edge="1" parent="1" source="RCSs8hemVRenKPumz4m_-34">
          <mxGeometry relative="1" as="geometry">
            <mxPoint x="830" y="480" as="targetPoint" />
          </mxGeometry>
        </mxCell>
        <mxCell id="RCSs8hemVRenKPumz4m_-34" value="void&lt;span style=&quot;white-space: pre;&quot;&gt;&#x9;type_manage(char type, va_list args, t_buffer *buffer)&lt;/span&gt;" style="rounded=1;whiteSpace=wrap;html=1;" vertex="1" parent="1">
          <mxGeometry x="630" y="430" width="380" height="20" as="geometry" />
        </mxCell>
        <mxCell id="RCSs8hemVRenKPumz4m_-37" style="edgeStyle=orthogonalEdgeStyle;rounded=0;orthogonalLoop=1;jettySize=auto;html=1;exitX=0.25;exitY=1;exitDx=0;exitDy=0;" edge="1" parent="1" source="RCSs8hemVRenKPumz4m_-36">
          <mxGeometry relative="1" as="geometry">
            <mxPoint x="590" y="550" as="targetPoint" />
          </mxGeometry>
        </mxCell>
        <mxCell id="RCSs8hemVRenKPumz4m_-38" style="edgeStyle=orthogonalEdgeStyle;rounded=0;orthogonalLoop=1;jettySize=auto;html=1;exitX=0.5;exitY=1;exitDx=0;exitDy=0;" edge="1" parent="1" source="RCSs8hemVRenKPumz4m_-36">
          <mxGeometry relative="1" as="geometry">
            <mxPoint x="750" y="550" as="targetPoint" />
          </mxGeometry>
        </mxCell>
        <mxCell id="RCSs8hemVRenKPumz4m_-39" style="edgeStyle=orthogonalEdgeStyle;rounded=0;orthogonalLoop=1;jettySize=auto;html=1;exitX=0.75;exitY=1;exitDx=0;exitDy=0;entryX=0.46;entryY=0;entryDx=0;entryDy=0;entryPerimeter=0;" edge="1" parent="1" source="RCSs8hemVRenKPumz4m_-36" target="RCSs8hemVRenKPumz4m_-46">
          <mxGeometry relative="1" as="geometry">
            <mxPoint x="900" y="550" as="targetPoint" />
          </mxGeometry>
        </mxCell>
        <mxCell id="RCSs8hemVRenKPumz4m_-40" style="edgeStyle=orthogonalEdgeStyle;rounded=0;orthogonalLoop=1;jettySize=auto;html=1;exitX=1;exitY=1;exitDx=0;exitDy=0;" edge="1" parent="1" source="RCSs8hemVRenKPumz4m_-36">
          <mxGeometry relative="1" as="geometry">
            <mxPoint x="1090" y="550" as="targetPoint" />
          </mxGeometry>
        </mxCell>
        <mxCell id="RCSs8hemVRenKPumz4m_-51" style="edgeStyle=orthogonalEdgeStyle;rounded=0;orthogonalLoop=1;jettySize=auto;html=1;exitX=1;exitY=1;exitDx=0;exitDy=0;" edge="1" parent="1" source="RCSs8hemVRenKPumz4m_-36">
          <mxGeometry relative="1" as="geometry">
            <mxPoint x="1290" y="550" as="targetPoint" />
          </mxGeometry>
        </mxCell>
        <mxCell id="RCSs8hemVRenKPumz4m_-54" style="edgeStyle=orthogonalEdgeStyle;rounded=0;orthogonalLoop=1;jettySize=auto;html=1;exitX=1;exitY=1;exitDx=0;exitDy=0;" edge="1" parent="1" source="RCSs8hemVRenKPumz4m_-36">
          <mxGeometry relative="1" as="geometry">
            <mxPoint x="1485.3333333333333" y="550" as="targetPoint" />
          </mxGeometry>
        </mxCell>
        <mxCell id="RCSs8hemVRenKPumz4m_-36" value="type = ?" style="shape=process;whiteSpace=wrap;html=1;backgroundOutline=1;" vertex="1" parent="1">
          <mxGeometry x="775" y="480" width="110" height="20" as="geometry" />
        </mxCell>
        <mxCell id="RCSs8hemVRenKPumz4m_-41" value="cspdiuxX%" style="text;html=1;align=center;verticalAlign=middle;resizable=0;points=[];autosize=1;strokeColor=none;fillColor=none;" vertex="1" parent="1">
          <mxGeometry x="1155" y="420" width="80" height="30" as="geometry" />
        </mxCell>
        <mxCell id="RCSs8hemVRenKPumz4m_-42" value="c" style="text;html=1;align=center;verticalAlign=middle;resizable=0;points=[];autosize=1;strokeColor=none;fillColor=none;" vertex="1" parent="1">
          <mxGeometry x="580" y="520" width="30" height="30" as="geometry" />
        </mxCell>
        <mxCell id="RCSs8hemVRenKPumz4m_-43" value="buffer-&amp;gt;buffer[buffer-&amp;gt;i] =&amp;nbsp; va_arg(args, int);" style="shape=process;whiteSpace=wrap;html=1;backgroundOutline=1;" vertex="1" parent="1">
          <mxGeometry x="510" y="550" width="160" height="40" as="geometry" />
        </mxCell>
        <mxCell id="RCSs8hemVRenKPumz4m_-45" value="strcat(buffer, va_arg(args, char *));" style="shape=process;whiteSpace=wrap;html=1;backgroundOutline=1;" vertex="1" parent="1">
          <mxGeometry x="680" y="550" width="150" height="40" as="geometry" />
        </mxCell>
        <mxCell id="RCSs8hemVRenKPumz4m_-46" value="strcat(buffer, itoa(va_args(args, int));" style="shape=process;whiteSpace=wrap;html=1;backgroundOutline=1;" vertex="1" parent="1">
          <mxGeometry x="840" y="550" width="160" height="40" as="geometry" />
        </mxCell>
        <mxCell id="RCSs8hemVRenKPumz4m_-47" value="diu" style="text;html=1;align=center;verticalAlign=middle;resizable=0;points=[];autosize=1;strokeColor=none;fillColor=none;" vertex="1" parent="1">
          <mxGeometry x="880" y="520" width="40" height="30" as="geometry" />
        </mxCell>
        <mxCell id="RCSs8hemVRenKPumz4m_-49" value="strcat(buffer, hextoamin/maj(va_args, int));" style="shape=process;whiteSpace=wrap;html=1;backgroundOutline=1;" vertex="1" parent="1">
          <mxGeometry x="1020" y="550" width="170" height="40" as="geometry" />
        </mxCell>
        <mxCell id="RCSs8hemVRenKPumz4m_-50" value="xX" style="text;html=1;align=center;verticalAlign=middle;resizable=0;points=[];autosize=1;strokeColor=none;fillColor=none;" vertex="1" parent="1">
          <mxGeometry x="1090" y="520" width="40" height="30" as="geometry" />
        </mxCell>
        <mxCell id="RCSs8hemVRenKPumz4m_-52" value="buffer-&amp;gt;buffer[buffer-&amp;gt;i] = &#39;%&#39;;" style="shape=process;whiteSpace=wrap;html=1;backgroundOutline=1;" vertex="1" parent="1">
          <mxGeometry x="1215" y="550" width="165" height="40" as="geometry" />
        </mxCell>
        <mxCell id="RCSs8hemVRenKPumz4m_-53" value="%" style="text;html=1;align=center;verticalAlign=middle;resizable=0;points=[];autosize=1;strokeColor=none;fillColor=none;" vertex="1" parent="1">
          <mxGeometry x="1290" y="520" width="30" height="30" as="geometry" />
        </mxCell>
      </root>
    </mxGraphModel>
  </diagram>
</mxfile>
